<!-- icon666.com - MILLIONS OF FREE VECTOR ICONS --><svg id="Icons" viewBox="0 0 512 512" xmlns="http://www.w3.org/2000/svg"><path d="m441.52 112.48c-6.64-17-28.39-8.69-39.34-26.64-4.76-26.6-23.26-34.19-31.49-4a17.17 17.17 0 0 0 -21.8 13.5 16.48 16.48 0 0 0 -13.84 19.92c-8.91 5.17-12.29 17.39-7 26.29a20.12 20.12 0 0 0 -5.45 22 17.78 17.78 0 0 0 -4.55 17.21 16.57 16.57 0 0 0 -7.75 9.16 15.94 15.94 0 0 0 -14.47 7 18.69 18.69 0 0 0 -16 .91 17.6 17.6 0 0 0 -21.16-3.07 19.63 19.63 0 0 0 -22.29-4.38 17.6 17.6 0 0 0 -22.71-2.71 20.18 20.18 0 0 0 -22.84-1.46 19.91 19.91 0 0 0 -18.68-.93c-6.71-5.87-17.89-5.64-24.27.66a19.3 19.3 0 0 0 -9.72-2.24c-4.55-7.64-15.84-10-22.9-4.39-9.43-6.3-23.31-1.4-27.07 9.17-13.85 2.1-21.78 19.27-14.07 31.08-9.36 10.41-3.65 27.51 10.27 29.82a14.76 14.76 0 0 0 14.24 10.62c0 .32.07.63.11 1-7.92 1.4-12.16 11.32-11.41 19-9.13 6.25-9.45 19.64-1.68 27.17-4.55 7.76-2.93 17.83 2.89 24.83-6.19 7.12-6.8 14.26-5.53 20-29 15.24 8.83 86.58 10.8 88.2a7.5 7.5 0 0 0 6.2 3.28h20.5a7.55 7.55 0 0 0 6.81-10.65c-16.64-36.53-11-55.21 16.65-86.87-9.48 37.29 27.51 84.85 39.05 100.52 2.83 5.47 23.24 2.16 28 3a7.54 7.54 0 0 0 6.93-10.36c-11.52-27.87-23.91-61.41-24.56-68.82 1.87-3.94 9.75-15.77 18.13-27.68 5.5 4.75 13.65 4.73 19.77 3.24 5 4 11.47 5.11 19.25 3.3a166.75 166.75 0 0 0 -2 38.83c3.83 32.49 6.79 62.45 17 61.49h25.46a7.52 7.52 0 0 0 6.17-3.22c3.32-7.44-.23-6.56-2.72-18.26 15.2 12.27 26.33-9.85 37.53-23 18.68-26.07 14.73-35.41 13.43-38.48-3.8-9-12.51-30.19-17.41-42.15a25 25 0 0 0 13.37-13.77c8.06-.92 15.85-7.15 18.18-14.81 6.89-2 14.19-7 15.55-14.38 9-3.93 15.23-13.17 14-22.73a17.7 17.7 0 0 0 7-18.16 20.09 20.09 0 0 0 4.94-19 20.05 20.05 0 0 0 2.26-22.77 17.14 17.14 0 0 0 .77-16.42 17.54 17.54 0 0 0 .3-21.83 24.25 24.25 0 0 0 .68-16.7c17.56-4.14 42.58-11 36.47-31.32zm-337.14 269c-3.85 11.07-.56 32.16 5.09 47.08h-5.18c-1.61-1.67-24.16-50.2-15.66-61.17 4-6 8-2.38 10.72-7.87 3.13-9.52-8.59-12 4.6-21.25a7.55 7.55 0 0 0 0-12.14c-4.62-3.12-8.4-9.53-3.91-12.79 6.36-2.06 6.51-11.75.21-14-3.23-1.42-6.71-4.32-4.37-6.93 5.34.34 9.4-5.68 7.11-10.51a8.55 8.55 0 0 1 0-6.59 21.31 21.31 0 0 1 3-.44c-3.5 9.8 1.66 21.39 11.41 25.14a18.24 18.24 0 0 0 11.82 19.79 21.48 21.48 0 0 0 4.55 15.15c-8.52 9.86-24.67 30.19-29.39 46.51zm186.27 9.12c.09-8.66.37-18.57.73-28.25 7.92 15 6.51 16.77-.73 28.23zm135.72-270.49c-2.8 3.19-19.15 8.47-35 11.3-6.41.94-8.41 10-3 13.52 8.12 8.31-2.55 11.59-1.25 18.5a7.52 7.52 0 0 0 4.45 5.53 2.58 2.58 0 0 1 -.44 4.83 7.52 7.52 0 0 0 -5.85 6.52c-.56 6.55 4.29 6 5.59 9.54-.71 3.06-5.16 3.4-5.12 8.12-1 4.92 5.36 6.49 5.15 11-.38 4.37-6.5 4.87-6.68 9.51-1.24 4 3.24 5.74 2.37 9.55-1.26 3.86-6.12 2.8-7.09 7.51-1.84 4.12 2.52 6.52 1.87 9.85a2.91 2.91 0 0 1 -2.27 1.66c-5.66.3-8.91 7.44-5.42 11.9 4.05 12.05-18.73 7-14.08 20.39-3.15 2.84-7.25 2.25-11.05 3.15a7.54 7.54 0 0 0 -4.14 10.43c-3.38 5.25-9.54.61-13.62 4-4.37 3-1.58 8.73-6 12-4 4.12-9.93.35-13.21 5.2-5.83 5.4 14 40.26 20 58.23 3.13 4.45-21.71 39-28.29 43.52a51.9 51.9 0 0 1 -6.57-7.05c12.87-20.56 23-28.17 6.08-57.08-8.73-13.72-10.84-23.71-19.83-22a7.51 7.51 0 0 0 -5.45 6.81c-.44 15.19-5.57 77.81 3.18 97.9h-9.42a283.74 283.74 0 0 1 -7.8-47.5 146.66 146.66 0 0 1 4.62-47.76c2.15-6.16-5.08-12.13-10.72-8.83-14 7.57-17 3.76-17.93 2.5a7.53 7.53 0 0 0 -8.17-2.57c-9.53 2.34-10.25 2.5-12-3-1.22-6.12-9.9-7.87-13.38-2.69-5.66 7.83-24.34 33.94-27 41.37-1.11 3.1-2.48 7 11.6 44.53 3.33 8.87 6.76 17.57 9.33 24h-7.03c-23-31.06-43-62.84-32-97.16a7.52 7.52 0 0 0 -1.76-7.13c-3.65-4.57-10.9.26-14-5.2a7.09 7.09 0 0 1 .33-7.64c4.59-5.65-1.8-14.31-8.56-11.58a3.58 3.58 0 0 1 -3.37-6.15c6.57-4.71 1-15.64-6.64-13.16-5.67 1.59-9.53-6.07-4.88-9.68 5.33-3.77 2.87-12.84-3.64-13.41-4.45-.47-6.37-6.44-3-9.42 4.28-3.67 2.52-11.2-2.84-12.68 1.1-3 2-3.54 5.77-2.12 9 3.75 14.67-10.43 5.59-13.92-10.25-4.28-20.7-.81-25 9.72-2.61-2.4-6.79-2.33-9.7-.3-2.66.66-6-1.7-4-4.62 2.57-3.39 7.41-1.82 8.33-8.13a7.49 7.49 0 0 0 -4.1-7.81c-5.7-3.14-2.87-11.88 3.69-10.87 12.09.71 6.15-10 11.83-11.67a4.1 4.1 0 0 1 4.15 2.43c2.42 7.32 13.81 5.95 14.52-1.7a1.15 1.15 0 0 1 2.28.21c-.62 6.15 7 10.39 11.89 6.59 5.89-2.11 4.27 7.95 12.46 7s4.63-8.68 9.93-10c5.1.19 3.58 7.89 10.43 8 6.68.53 5.79-5.61 10.19-5.59 1.32 0 2.55.51 2.81 1.14 2.07 5.46 10.16 6.21 13.2 1.23a5.44 5.44 0 0 1 9.59 1.24c2 6.84 12.5 6.66 14.3-.23a3 3 0 0 1 5.76.65c.2 7.07 10.27 9.63 13.83 3.52a5.39 5.39 0 0 1 5.48-2.16c6.08 2.17 1.81 10.81 10.44 11.69 8.37.78 6.41-7.92 11.5-7.94 5.16 1.66.5 9 8.92 10.67 8.18 1.4 6.93-7.15 12.29-7.66 5.79.8 4 9 12.61 7.34 8.68-1.88 3.55-11.81 7.92-13 1 9.06 15.17 8.1 14.93-1 0-3.25-1.21-8 1-10 6.37 4.94 15.34-3.52 10.66-10.19-1.82-3.17-4.66-6.67-2.86-9.42 7.44 1.24 11.68-9.21 5.42-13.49a5.26 5.26 0 0 1 3.05-9.51c8.26.14 10.19-12.25 2.28-14.62a4.87 4.87 0 0 1 1.86-9.49c7.43.73 11-9.75 4.69-13.72-.61-.24-.92-2.42-.41-2.82 3.49-2.27 6.34 5.93 13.27.26a7.48 7.48 0 0 0 .73-10.39 2.9 2.9 0 0 1 -.39-2.19c.15-3 4-2.6 5-.64a7.53 7.53 0 0 0 7.79 4.58c8.66-1.15 6.73-13 9.5-18.76 2 14.74 18.58 28 35.09 30.93 5.25.94 8.12 2.7 5.41 5.58z" fill="rgb(0,0,0)"></path></svg>